<?xml version="1.0" encoding="UTF-8" standalone="no"?>
<svg
   xmlns:dc="http://purl.org/dc/elements/1.1/"
   xmlns:cc="http://creativecommons.org/ns#"
   xmlns:rdf="http://www.w3.org/1999/02/22-rdf-syntax-ns#"
   xmlns:svg="http://www.w3.org/2000/svg"
   xmlns="http://www.w3.org/2000/svg"
   xmlns:sodipodi="http://sodipodi.sourceforge.net/DTD/sodipodi-0.dtd"
   xmlns:inkscape="http://www.inkscape.org/namespaces/inkscape"
   height="100"
   version="1.1"
   width="100"
   id="svg2"
   inkscape:version="0.48.4 r9939"
   sodipodi:docname="check.svg">
  <metadata
     id="metadata18">
    <rdf:RDF>
      <cc:Work
         rdf:about="">
        <dc:format>image/svg+xml</dc:format>
        <dc:type
           rdf:resource="http://purl.org/dc/dcmitype/StillImage" />
      </cc:Work>
    </rdf:RDF>
  </metadata>
  <defs
     id="defs16" />
  <sodipodi:namedview
     pagecolor="#ffffff"
     bordercolor="#666666"
     borderopacity="1"
     objecttolerance="10"
     gridtolerance="10"
     guidetolerance="10"
     inkscape:pageopacity="0"
     inkscape:pageshadow="2"
     inkscape:window-width="1600"
     inkscape:window-height="1178"
     id="namedview14"
     showgrid="false"
     inkscape:zoom="3.4766083"
     inkscape:cx="-51.68065"
     inkscape:cy="38.360643"
     inkscape:window-x="-8"
     inkscape:window-y="-8"
     inkscape:window-maximized="1"
     inkscape:current-layer="svg2" />
  <g
     transform="matrix(4.6029056,0,0,4.6029056,-5.4799912,-4741.3578)"
     id="g4">
    <path
       d="M 22,12 C 22,17.523 17.523,22 12,22 6.4772,22 2,17.523 2,12 2,6.4772 6.4772,2 12,2 17.523,2 22,6.4772 22,12 z"
       transform="translate(0,1029.4)"
       id="path6"
       inkscape:connector-curvature="0"
       style="fill:#27ae60" />
    <path
       d="M 22,12 C 22,17.523 17.523,22 12,22 6.4772,22 2,17.523 2,12 2,6.4772 6.4772,2 12,2 17.523,2 22,6.4772 22,12 z"
       transform="translate(0,1028.4)"
       id="path8"
       inkscape:connector-curvature="0"
       style="fill:#2ecc71" />
    <path
       d="m 16,1037.4 -6,6 -2.5,-2.5 -2.125,2.1 2.5,2.5 2,2 0.125,0.1 8.125,-8.1 -2.125,-2.1 z"
       id="path10"
       inkscape:connector-curvature="0"
       style="fill:#27ae60" />
    <path
       d="m 16,1036.4 -6,6 -2.5,-2.5 -2.125,2.1 2.5,2.5 2,2 0.125,0.1 8.125,-8.1 -2.125,-2.1 z"
       id="path12"
       inkscape:connector-curvature="0"
       style="fill:#ecf0f1" />
  </g>
</svg>
