<?xml version="1.0" ?><svg clip-rule="evenodd" fill-rule="evenodd" image-rendering="optimizeQuality" shape-rendering="geometricPrecision" text-rendering="geometricPrecision" viewBox="0 0 500 500" xmlns="http://www.w3.org/2000/svg"><defs><style type="text/css"><![CDATA[
    .str1 {stroke:#434242;stroke-width:10}
    .str0 {stroke:#434242;stroke-width:30}
    .fil0 {fill:none}
    .fil1 {fill:#434242}
    .fil2 {fill:url(#id0)}
   ]]></style><linearGradient gradientUnits="userSpaceOnUse" id="id0" x1="250" x2="250" y1="125.639" y2="287.919"><stop offset="0" stop-color="#008BFF"/><stop offset="1" stop-color="#0af"/></linearGradient></defs><g id="Layer_x0020_1"><circle class="fil0 str0" cx="250" cy="250" r="210"/><rect class="fil1" height="29.998" rx="10" ry="10" width="260" x="120" y="350"/><path class="fil2 str1" d="M270 320l60-60c5-5 10-10 10-20s-10-20-20-20h-40v-125c0-8-7-15-15-15h-30c-8 0-15 7-15 15v125h-40c-10 0-20 10-20 20s5 15 10 20l60 60c13 14 27 14 40 0z"/></g></svg>