<?xml version="1.0" encoding="UTF-8" standalone="no"?>
<svg
   xmlns:dc="http://purl.org/dc/elements/1.1/"
   xmlns:cc="http://creativecommons.org/ns#"
   xmlns:rdf="http://www.w3.org/1999/02/22-rdf-syntax-ns#"
   xmlns:svg="http://www.w3.org/2000/svg"
   xmlns="http://www.w3.org/2000/svg"
   xmlns:sodipodi="http://sodipodi.sourceforge.net/DTD/sodipodi-0.dtd"
   xmlns:inkscape="http://www.inkscape.org/namespaces/inkscape"
   enable-background="new 0 0 300 300"
   height="270"
   id="Layer_1"
   version="1.1"
   viewBox="0 0 270 270"
   width="270"
   xml:space="preserve"
   inkscape:version="0.48.4 r9939"
   sodipodi:docname="info.svg"><metadata
     id="metadata19"><rdf:RDF><cc:Work
         rdf:about=""><dc:format>image/svg+xml</dc:format><dc:type
           rdf:resource="http://purl.org/dc/dcmitype/StillImage" /></cc:Work></rdf:RDF></metadata><defs
     id="defs17" /><sodipodi:namedview
     pagecolor="#ffffff"
     bordercolor="#666666"
     borderopacity="1"
     objecttolerance="10"
     gridtolerance="10"
     guidetolerance="10"
     inkscape:pageopacity="0"
     inkscape:pageshadow="2"
     inkscape:window-width="1600"
     inkscape:window-height="1138"
     id="namedview15"
     showgrid="false"
     inkscape:zoom="2.2250293"
     inkscape:cx="214.09802"
     inkscape:cy="85.505744"
     inkscape:window-x="1592"
     inkscape:window-y="-8"
     inkscape:window-maximized="1"
     inkscape:current-layer="Layer_1"
     fit-margin-top="0"
     fit-margin-left="0"
     fit-margin-right="0"
     fit-margin-bottom="0" /><path
     sodipodi:type="arc"
     style="fill:#ffffff;fill-opacity:1;stroke:none"
     id="path3764"
     sodipodi:cx="153.33687"
     sodipodi:cy="150.31779"
     sodipodi:rx="129.50212"
     sodipodi:ry="129.97881"
     d="m 282.83899,150.31779 a 129.50212,129.97881 0 1 1 -259.004243,0 129.50212,129.97881 0 1 1 259.004243,0 z"
     transform="translate(-17.396186,-15.75339)" /><g
     id="g3"
     transform="translate(-16.125,-14.8)"><path
       d="m 151.123,14.8 c -74.557,0 -134.998,60.44 -134.998,135.002 0,74.554 60.44,134.998 134.998,134.998 74.559,0 135.002,-60.443 135.002,-134.998 C 286.125,75.241 225.682,14.8 151.123,14.8 z m 0,250.914 c -64.013,0 -115.911,-51.901 -115.911,-115.912 0,-64.018 51.898,-115.911 115.911,-115.911 64.019,0 115.912,51.894 115.912,115.911 0,64.011 -51.893,115.912 -115.912,115.912 z"
       id="path5"
       style="fill:#1784db;fill-opacity:1"
       inkscape:connector-curvature="0" /><circle
       cx="151.125"
       cy="149.802"
       r="104.431"
       id="circle7"
       style="fill:#1784db;fill-opacity:1"
       sodipodi:cx="151.125"
       sodipodi:cy="149.802"
       sodipodi:rx="104.431"
       sodipodi:ry="104.431"
       d="m 255.556,149.802 c 0,57.67565 -46.75535,104.431 -104.431,104.431 -57.675649,0 -104.431,-46.75535 -104.431,-104.431 0,-57.675647 46.755351,-104.430998 104.431,-104.430998 57.67565,0 104.431,46.755351 104.431,104.430998 z" /><g
       id="g9" /></g><text
     xml:space="preserve"
     style="font-size:204.49822998px;font-style:normal;font-variant:normal;font-weight:normal;font-stretch:normal;line-height:125%;letter-spacing:0px;word-spacing:0px;fill:#ffffff;fill-opacity:1;stroke:none;font-family:Arial;-inkscape-font-specification:Arial"
     x="75.992035"
     y="205.28174"
     id="text3766"
     sodipodi:linespacing="125%"><tspan
       sodipodi:role="line"
       id="tspan3768"
       x="75.992035"
       y="205.28174">?</tspan></text>
</svg>