<?xml version="1.0" encoding="UTF-8" standalone="no"?>
<svg
   xmlns:dc="http://purl.org/dc/elements/1.1/"
   xmlns:cc="http://creativecommons.org/ns#"
   xmlns:rdf="http://www.w3.org/1999/02/22-rdf-syntax-ns#"
   xmlns:svg="http://www.w3.org/2000/svg"
   xmlns="http://www.w3.org/2000/svg"
   xmlns:sodipodi="http://sodipodi.sourceforge.net/DTD/sodipodi-0.dtd"
   xmlns:inkscape="http://www.inkscape.org/namespaces/inkscape"
   viewBox="0 0 32 32"
   width="32"
   height="32"
   fill="#1368AE"
   id="svg2"
   version="1.1"
   inkscape:version="0.48.4 r9939"
   sodipodi:docname="loading-bars-notloading.svg">
  <metadata
     id="metadata28">
    <rdf:RDF>
      <cc:Work
         rdf:about="">
        <dc:format>image/svg+xml</dc:format>
        <dc:type
           rdf:resource="http://purl.org/dc/dcmitype/StillImage" />
      </cc:Work>
    </rdf:RDF>
  </metadata>
  <defs
     id="defs26" />
  <sodipodi:namedview
     pagecolor="#ffffff"
     bordercolor="#666666"
     borderopacity="1"
     objecttolerance="10"
     gridtolerance="10"
     guidetolerance="10"
     inkscape:pageopacity="0"
     inkscape:pageshadow="2"
     inkscape:window-width="1600"
     inkscape:window-height="1178"
     id="namedview24"
     showgrid="false"
     inkscape:zoom="22.627417"
     inkscape:cx="18.876745"
     inkscape:cy="15.874431"
     inkscape:window-x="-8"
     inkscape:window-y="-8"
     inkscape:window-maximized="1"
     inkscape:current-layer="svg2" />
  <path
     transform="translate(2)"
     d="M0 12 V20 H4 V12z"
     id="path4"
     style="fill:#516371;fill-opacity:1">
  </path>
  <path
     style="fill:#516371;fill-opacity:1"
     d="m 8.0317705,16.008022 0,-3.983051 1.9830505,0 1.983051,0 0,3.983051 0,3.983051 -1.983051,0 -1.9830505,0 0,-3.983051 z"
     id="path3773"
     inkscape:connector-curvature="0" />
  <path
     style="fill:#516371;fill-opacity:1"
     d="m 14.03177,16.008022 0,-3.983051 1.983051,0 1.983051,0 0,3.983051 0,3.983051 -1.983051,0 -1.983051,0 0,-3.983051 z"
     id="path3775"
     inkscape:connector-curvature="0" />
  <path
     style="fill:#516371;fill-opacity:1"
     d="m 20.03177,16.008022 0,-3.983051 1.983051,0 1.983051,0 0,3.983051 0,3.983051 -1.983051,0 -1.983051,0 0,-3.983051 z"
     id="path3777"
     inkscape:connector-curvature="0" />
  <path
     style="fill:#516371;fill-opacity:1;stroke:none;stroke-opacity:1"
     d="m 26.014673,16.008022 0,-3.983051 1.983051,0 1.98305,0 0,3.983051 0,3.983051 -1.98305,0 -1.983051,0 0,-3.983051 z"
     id="path3779"
     inkscape:connector-curvature="0" />
</svg>
